<?xml version="1.0" encoding="UTF-8" standalone="no"?>
<!-- Created with Inkscape (http://www.inkscape.org/) -->

<svg
   xmlns:osb="http://www.openswatchbook.org/uri/2009/osb"
   xmlns:dc="http://purl.org/dc/elements/1.1/"
   xmlns:cc="http://creativecommons.org/ns#"
   xmlns:rdf="http://www.w3.org/1999/02/22-rdf-syntax-ns#"
   xmlns:svg="http://www.w3.org/2000/svg"
   xmlns="http://www.w3.org/2000/svg"
   xmlns:xlink="http://www.w3.org/1999/xlink"
   xmlns:sodipodi="http://sodipodi.sourceforge.net/DTD/sodipodi-0.dtd"
   xmlns:inkscape="http://www.inkscape.org/namespaces/inkscape"
   width="1052.3622"
   height="744.09448"
   id="svg2"
   version="1.1"
   inkscape:version="0.48.2 r9819"
   sodipodi:docname="simple-wiring.svg"
   inkscape:export-filename="/Users/dustin/Desktop/simple-wiring.png"
   inkscape:export-xdpi="450"
   inkscape:export-ydpi="450">
  <defs
     id="defs4">
    <pattern
       inkscape:collect="always"
       xlink:href="#pattern5254"
       id="pattern5453"
       patternTransform="matrix(12.320185,8.6661322,-24.640369,35.029918,1370.0005,585)" />
    <pattern
       inkscape:collect="always"
       xlink:href="#pattern5254"
       id="pattern5258"
       patternTransform="matrix(12.320185,8.6661322,-24.640369,35.029918,1600.0005,585)" />
    <pattern
       inkscape:collect="always"
       xlink:href="#Strips1_1"
       id="pattern5254"
       patternTransform="matrix(12.320185,8.6661322,-24.640369,35.029918,4.8828125e-4,110)" />
    <pattern
       inkscape:stockid="Stripes 1:1"
       id="Strips1_1"
       patternTransform="translate(0,0) scale(10,10)"
       height="1"
       width="2"
       patternUnits="userSpaceOnUse"
       inkscape:collect="always">
      <rect
         id="rect4492"
         height="2"
         width="1"
         y="-0.5"
         x="0"
         style="fill:black;stroke:none" />
    </pattern>
    <linearGradient
       id="linearGradient5215"
       osb:paint="solid">
      <stop
         style="stop-color:#000000;stop-opacity:1;"
         offset="0"
         id="stop5217" />
    </linearGradient>
  </defs>
  <sodipodi:namedview
     id="base"
     pagecolor="#ffffff"
     bordercolor="#666666"
     borderopacity="1.0"
     inkscape:pageopacity="0.0"
     inkscape:pageshadow="2"
     inkscape:zoom="1.7765152"
     inkscape:cx="547.50002"
     inkscape:cy="427.5"
     inkscape:document-units="px"
     inkscape:current-layer="layer1"
     showgrid="true"
     inkscape:snap-global="true"
     inkscape:window-width="1916"
     inkscape:window-height="1156"
     inkscape:window-x="4"
     inkscape:window-y="494"
     inkscape:window-maximized="0">
    <inkscape:grid
       type="xygrid"
       id="grid2985"
       empspacing="5"
       visible="true"
       enabled="true"
       snapvisiblegridlinesonly="true" />
  </sodipodi:namedview>
  <metadata
     id="metadata7">
    <rdf:RDF>
      <cc:Work
         rdf:about="">
        <dc:format>image/svg+xml</dc:format>
        <dc:type
           rdf:resource="http://purl.org/dc/dcmitype/StillImage" />
        <dc:title />
      </cc:Work>
    </rdf:RDF>
  </metadata>
  <g
     inkscape:label="Layer 1"
     inkscape:groupmode="layer"
     id="layer1"
     transform="translate(0,-308.2677)">
    <rect
       style="opacity:0.73999999;fill:none;stroke:#000000;stroke-opacity:1"
       id="rect2999"
       width="160"
       height="80"
       x="570"
       y="567.36218" />
    <rect
       style="opacity:0.73999999;fill:none;stroke:#000000;stroke-opacity:1"
       id="rect3001"
       width="280"
       height="110"
       x="90.000023"
       y="687.36218" />
    <rect
       y="687.36218"
       x="450.00003"
       height="110"
       width="280"
       id="rect3003"
       style="opacity:0.73999999;fill:none;stroke:#000000;stroke-opacity:1" />
    <path
       inkscape:connector-curvature="0"
       id="path5246"
       style="fill:none;stroke:#000000;stroke-width:1px;stroke-linecap:butt;stroke-linejoin:miter;stroke-opacity:1"
       d="m 690.00002,757.36218 0,25 m 0,-79.99999 0,14.99999 15,40" />
    <rect
       style="opacity:0.73999999;fill:url(#pattern5453);fill-opacity:1;stroke:#000000;stroke-width:1;stroke-miterlimit:4;stroke-opacity:1;stroke-dasharray:none;stroke-dashoffset:0"
       id="rect5250"
       width="90"
       height="30"
       x="250.00002"
       y="727.36218" />
    <rect
       y="727.36218"
       x="480.00003"
       height="30"
       width="90"
       id="rect5256"
       style="opacity:0.73999999;fill:url(#pattern5258);fill-opacity:1;stroke:#000000;stroke-width:1;stroke-miterlimit:4;stroke-opacity:1;stroke-dasharray:none;stroke-dashoffset:0" />
    <path
       style="fill:none;stroke:#000000;stroke-width:3;stroke-linecap:butt;stroke-linejoin:miter;stroke-miterlimit:4;stroke-opacity:1;stroke-dasharray:none"
       d="m 575.00002,888.23919 c 0,26.68646 0,57.05483 0,89.12299 0,20 0,30.00002 10,30.00002 10,0 20,-90.00002 10,-90.00002 -10,0 -5,80 5,80 10,0 10,-4.59768 10,-20 0,-30 0,-65 0,-90"
       id="path5331"
       inkscape:connector-curvature="0"
       sodipodi:nodetypes="csssssc" />
    <path
       sodipodi:type="arc"
       style="opacity:0.73999999;fill:none;stroke:#000000;stroke-width:1;stroke-miterlimit:4;stroke-opacity:1;stroke-dasharray:none;stroke-dashoffset:0"
       id="path5295"
       sodipodi:cx="-792.5"
       sodipodi:cy="412.36218"
       sodipodi:rx="27.5"
       sodipodi:ry="10"
       d="m -765,412.36218 c 0,5.52285 -12.31217,10 -27.5,10 -15.18783,0 -27.5,-4.47715 -27.5,-10 0,-5.52284 12.31217,-10 27.5,-10 15.18783,0 27.5,4.47716 27.5,10 z"
       transform="translate(1385,475.00001)" />
    <path
       sodipodi:nodetypes="csssssc"
       inkscape:connector-curvature="0"
       id="path5303"
       d="m 150.00002,887.36218 c 0,35 0,35 0,90 0,20 0,30.00002 10,30.00002 10,0 20,-90.00002 10,-90.00002 -10,0 -5,80 5,80 10,0 10,-4.59768 10,-20 0,-30 0,-65 0,-90"
       style="fill:none;stroke:#000000;stroke-width:3;stroke-linecap:butt;stroke-linejoin:miter;stroke-miterlimit:4;stroke-opacity:1;stroke-dasharray:none" />
    <path
       d="m -765,412.36218 c 0,5.52285 -12.31217,10 -27.5,10 -15.18783,0 -27.5,-4.47715 -27.5,-10 0,-5.52284 12.31217,-10 27.5,-10 15.18783,0 27.5,4.47716 27.5,10 z"
       sodipodi:ry="10"
       sodipodi:rx="27.5"
       sodipodi:cy="412.36218"
       sodipodi:cx="-792.5"
       id="path5305"
       style="opacity:0.73999999;fill:none;stroke:#000000;stroke-width:1;stroke-miterlimit:4;stroke-opacity:1;stroke-dasharray:none;stroke-dashoffset:0"
       sodipodi:type="arc"
       transform="translate(960.00002,475.00001)" />
    <path
       id="path5312"
       style="fill:none;stroke:#be1717;stroke-width:3;stroke-linecap:butt;stroke-linejoin:round;stroke-miterlimit:4;stroke-opacity:1;stroke-dasharray:none"
       d="m 130.00002,782.36218 0,80 20,0 0,25 m -20,-130 0,25 m 0,-79.99999 0,14.99999 -15,40 m 255,-395 -2e-5,70 -239.99998,0 0,270"
       inkscape:connector-curvature="0"
       sodipodi:nodetypes="ccccccccccccc" />
    <path
       style="fill:none;stroke:#000000;stroke-width:1px;stroke-linecap:butt;stroke-linejoin:miter;stroke-opacity:1"
       d="m 730.00002,597.36218 115,0 0,-5"
       id="path5350"
       inkscape:connector-curvature="0"
       sodipodi:nodetypes="ccc" />
    <path
       style="fill:none;stroke:#000000;stroke-width:1px;stroke-linecap:butt;stroke-linejoin:miter;stroke-opacity:1"
       d="m 730.00002,612.36218 115,0 0,30"
       id="path5352"
       inkscape:connector-curvature="0"
       sodipodi:nodetypes="ccc" />
    <path
       style="fill:none;stroke:#000000;stroke-width:1px;stroke-linecap:butt;stroke-linejoin:miter;stroke-opacity:1"
       d="m 860.00002,592.36218 0,50"
       id="path5354"
       inkscape:connector-curvature="0"
       sodipodi:nodetypes="cc" />
    <path
       id="path5360"
       style="fill:none;stroke:#c0be04;stroke-width:3;stroke-linecap:butt;stroke-linejoin:miter;stroke-miterlimit:4;stroke-opacity:1;stroke-dasharray:none"
       d="m 845.00002,532.36218 50,0 0,110 m -115,-110 65,0 0,25 m -270,330 0,-50 m -45,0 -230,0 0,-80 m 150,-395 -2e-5,70 330,0 2e-5,405 -250,0 0,-80"
       inkscape:connector-curvature="0"
       sodipodi:nodetypes="ccccccccccccccccc" />
    <path
       style="fill:none;stroke:#1619ab;stroke-width:3;stroke-linecap:butt;stroke-linejoin:miter;stroke-miterlimit:4;stroke-opacity:1;stroke-dasharray:none"
       d="m 610,547.36218 300.00002,0 0,95"
       id="path3575"
       inkscape:connector-curvature="0"
       sodipodi:nodetypes="ccc" />
    <path
       style="fill:none;stroke:#1619ab;stroke-width:3;stroke-linecap:butt;stroke-linejoin:miter;stroke-miterlimit:4;stroke-opacity:1;stroke-dasharray:none"
       d="m 210.00002,782.36218 0,80 -25,0 0,25"
       id="path3571" />
    <path
       style="fill:none;stroke:#1619ab;stroke-width:3;stroke-linecap:butt;stroke-linejoin:miter;stroke-miterlimit:4;stroke-opacity:1;stroke-dasharray:none"
       d="m 210.00002,757.36218 0,25"
       id="path3569" />
    <path
       style="fill:none;stroke:#1619ab;stroke-width:3;stroke-linecap:butt;stroke-linejoin:miter;stroke-miterlimit:4;stroke-opacity:1;stroke-dasharray:none"
       d="m 210.00002,702.36219 0,14.99999 -15,40"
       id="path3567" />
    <path
       style="fill:none;stroke:#1619ab;stroke-width:3;stroke-linecap:butt;stroke-linejoin:miter;stroke-miterlimit:4;stroke-opacity:1;stroke-dasharray:none"
       d="m 410.00002,362.36218 0,115"
       id="path3565"
       inkscape:connector-curvature="0"
       sodipodi:nodetypes="cc" />
    <path
       style="fill:none;stroke:#1619ab;stroke-width:3;stroke-linecap:butt;stroke-linejoin:miter;stroke-miterlimit:4;stroke-opacity:1;stroke-dasharray:none"
       d="m 210,462.36218 2e-5,240"
       id="path3563" />
    <path
       style="fill:none;stroke:#1619ab;stroke-width:3;stroke-linecap:butt;stroke-linejoin:miter;stroke-miterlimit:4;stroke-opacity:1;stroke-dasharray:none"
       d="m 410.00002,637.36218 0,-110"
       id="path3561"
       inkscape:connector-curvature="0"
       sodipodi:nodetypes="cc" />
    <path
       style="fill:none;stroke:#1619ab;stroke-width:3;stroke-linecap:butt;stroke-linejoin:miter;stroke-miterlimit:4;stroke-opacity:1;stroke-dasharray:none"
       d="m 390.12229,502.36218 c 9.45567,-14.174 14.84645,-10.56837 22.69742,0 4.26699,5.74388 10.77733,22.57518 18.15793,0"
       id="path3559"
       inkscape:connector-curvature="0" />
    <path
       style="fill:none;stroke:#1619ab;stroke-width:3;stroke-linecap:butt;stroke-linejoin:miter;stroke-miterlimit:4;stroke-opacity:1;stroke-dasharray:none"
       d="m 410,547.36218 200,0 2e-5,20.00001"
       id="path3557"
       inkscape:connector-curvature="0"
       sodipodi:nodetypes="ccc" />
    <path
       style="fill:none;stroke:#1619ab;stroke-width:3;stroke-linecap:butt;stroke-linejoin:miter;stroke-miterlimit:4;stroke-opacity:1;stroke-dasharray:none"
       d="m 610.00002,622.36218 0,80"
       id="path3555" />
    <path
       style="fill:none;stroke:#1619ab;stroke-width:3;stroke-linecap:butt;stroke-linejoin:miter;stroke-miterlimit:4;stroke-opacity:1;stroke-dasharray:none"
       d="m 610.00002,567.36219 0,14.99999 15,40"
       id="path3553" />
    <path
       style="fill:none;stroke:#1619ab;stroke-width:3;stroke-linecap:butt;stroke-linejoin:miter;stroke-miterlimit:4;stroke-opacity:1;stroke-dasharray:none"
       d="m 610.00002,702.36219 0,14.99999 15,40"
       id="path3551" />
    <path
       style="fill:none;stroke:#1619ab;stroke-width:3;stroke-linecap:butt;stroke-linejoin:miter;stroke-miterlimit:4;stroke-opacity:1;stroke-dasharray:none"
       d="m 610.00002,757.36218 0,130"
       id="path3549" />
    <path
       style="fill:none;stroke:#1619ab;stroke-width:3;stroke-linecap:butt;stroke-linejoin:miter;stroke-miterlimit:4;stroke-opacity:1;stroke-dasharray:none"
       d="m 450.00002,627.36218 80,0 0,100"
       id="path3547" />
    <path
       style="fill:none;stroke:#1619ab;stroke-width:3;stroke-linecap:butt;stroke-linejoin:miter;stroke-miterlimit:4;stroke-opacity:1;stroke-dasharray:none"
       d="m 370.00002,627.36218 -70,0 0,100"
       id="path3545" />
    <path
       style="fill:none;stroke:#1619ab;stroke-width:3;stroke-linecap:butt;stroke-linejoin:miter;stroke-miterlimit:4;stroke-opacity:1;stroke-dasharray:none"
       d="m 210,462.36218 200,0"
       id="path5364" />
    <rect
       y="557.36218"
       x="825"
       height="35"
       width="55"
       id="rect5385"
       style="opacity:0.73999999;fill:none;stroke:#000000;stroke-opacity:1" />
    <rect
       style="opacity:0.73999999;fill:none;stroke:#000000;stroke-opacity:1"
       id="rect5391"
       width="95.000061"
       height="50"
       x="829.99994"
       y="642.36218" />
    <text
       xml:space="preserve"
       style="font-size:14px;font-style:normal;font-variant:normal;font-weight:normal;font-stretch:normal;text-align:center;line-height:125%;letter-spacing:0px;word-spacing:0px;text-anchor:middle;fill:#000000;fill-opacity:1;stroke:none;font-family:Bitstream Vera Sans;-inkscape-font-specification:Bitstream Vera Sans"
       x="409.43417"
       y="354.20337"
       id="text5393"
       sodipodi:linespacing="125%"><tspan
         sodipodi:role="line"
         id="tspan5395"
         x="409.43417"
         y="354.20337">240V / 30A supply</tspan></text>
    <text
       xml:space="preserve"
       style="font-size:14px;font-style:normal;font-variant:normal;font-weight:normal;font-stretch:normal;text-align:center;line-height:125%;letter-spacing:0px;word-spacing:0px;text-anchor:middle;fill:#000000;fill-opacity:1;stroke:none;font-family:Bitstream Vera Sans;-inkscape-font-specification:Bitstream Vera Sans"
       x="680"
       y="601.36218"
       id="text5397"
       sodipodi:linespacing="125%"><tspan
         sodipodi:role="line"
         id="tspan5399"
         x="680"
         y="601.36218">25A</tspan><tspan
         sodipodi:role="line"
         x="680"
         y="618.86218"
         id="tspan5427">SSR</tspan></text>
    <text
       xml:space="preserve"
       style="font-size:14px;font-style:normal;font-variant:normal;font-weight:normal;font-stretch:normal;text-align:start;line-height:125%;letter-spacing:0px;word-spacing:0px;text-anchor:start;fill:#000000;fill-opacity:1;stroke:none;font-family:Bitstream Vera Sans;-inkscape-font-specification:Bitstream Vera Sans"
       x="195.00002"
       y="952.36218"
       id="text5401"
       sodipodi:linespacing="125%"><tspan
         sodipodi:role="line"
         id="tspan5403"
         x="195.00002"
         y="952.36218">240V / 5500W elt</tspan></text>
    <text
       sodipodi:linespacing="125%"
       id="text5405"
       y="952.36218"
       x="445.00003"
       style="font-size:14px;font-style:normal;font-variant:normal;font-weight:normal;font-stretch:normal;text-align:start;line-height:125%;letter-spacing:0px;word-spacing:0px;text-anchor:start;fill:#000000;fill-opacity:1;stroke:none;font-family:Bitstream Vera Sans;-inkscape-font-specification:Bitstream Vera Sans"
       xml:space="preserve"><tspan
         y="952.36218"
         x="445.00003"
         sodipodi:role="line"
         id="tspan5409">120V / 1500W elt</tspan></text>
    <path
       transform="translate(1203,-34)"
       sodipodi:type="arc"
       style="opacity:0.73999999;fill:none;stroke:#000000;stroke-width:1;stroke-miterlimit:4;stroke-opacity:1;stroke-dasharray:none;stroke-dashoffset:0"
       id="path5413"
       sodipodi:cx="-792.5"
       sodipodi:cy="412.36218"
       sodipodi:rx="52.5"
       sodipodi:ry="10"
       d="m -740,412.36218 c 0,5.52285 -23.50505,10 -52.5,10 -28.99495,0 -52.5,-4.47715 -52.5,-10 0,-5.52284 23.50505,-10 52.5,-10 28.99495,0 52.5,4.47716 52.5,10 z" />
    <text
       xml:space="preserve"
       style="font-size:14px;font-style:normal;font-variant:normal;font-weight:normal;font-stretch:normal;text-align:center;line-height:125%;letter-spacing:0px;word-spacing:0px;text-anchor:middle;fill:#000000;fill-opacity:1;stroke:none;font-family:Bitstream Vera Sans;-inkscape-font-specification:Bitstream Vera Sans"
       x="876"
       y="665.36218"
       id="text5415"
       sodipodi:linespacing="125%"><tspan
         sodipodi:role="line"
         id="tspan5417"
         x="876"
         y="665.36218">PID</tspan><tspan
         sodipodi:role="line"
         x="876"
         y="682.86218"
         id="tspan5419">STC-1000</tspan></text>
    <text
       xml:space="preserve"
       style="font-size:14px;font-style:normal;font-variant:normal;font-weight:normal;font-stretch:normal;text-align:center;line-height:125%;letter-spacing:0px;word-spacing:0px;text-anchor:middle;fill:#000000;fill-opacity:1;stroke:none;font-family:Bitstream Vera Sans;-inkscape-font-specification:Bitstream Vera Sans"
       x="852"
       y="570.36218"
       id="text5421"
       sodipodi:linespacing="125%"><tspan
         sodipodi:role="line"
         id="tspan5423"
         x="852"
         y="570.36218">12VDC</tspan><tspan
         sodipodi:role="line"
         x="852"
         y="587.86218"
         id="tspan5425">supply</tspan></text>
    <text
       xml:space="preserve"
       style="font-size:14px;font-style:normal;font-variant:normal;font-weight:normal;font-stretch:normal;text-align:center;line-height:125%;letter-spacing:0px;word-spacing:0px;text-anchor:middle;fill:#000000;fill-opacity:1;stroke:none;font-family:Bitstream Vera Sans;-inkscape-font-specification:Bitstream Vera Sans"
       x="440.00003"
       y="587.36218"
       id="text5429"
       sodipodi:linespacing="125%"><tspan
         sodipodi:role="line"
         id="tspan5431"
         x="440.00003"
         y="587.36218">3-pos</tspan><tspan
         sodipodi:role="line"
         x="440.00003"
         y="604.86218"
         id="tspan5433">switch</tspan></text>
    <path
       sodipodi:type="arc"
       style="fill:none;stroke:#1619ab;stroke-width:3;stroke-linejoin:round;stroke-miterlimit:4;stroke-opacity:1;stroke-dasharray:none;stroke-dashoffset:0"
       id="path5435"
       sodipodi:cx="-960"
       sodipodi:cy="162.36218"
       sodipodi:rx="5"
       sodipodi:ry="5"
       d="m -955,162.36218 c 0,2.76143 -2.23858,5 -5,5 -2.76142,0 -5,-2.23857 -5,-5 0,-2.76142 2.23858,-5 5,-5 2.76142,0 5,2.23858 5,5 z"
       transform="translate(1370,475)" />
    <path
       d="m -955,162.36218 c 0,2.76143 -2.23858,5 -5,5 -2.76142,0 -5,-2.23857 -5,-5 0,-2.76142 2.23858,-5 5,-5 2.76142,0 5,2.23858 5,5 z"
       sodipodi:ry="5"
       sodipodi:rx="5"
       sodipodi:cy="162.36218"
       sodipodi:cx="-960"
       id="path5437"
       style="fill:none;stroke:#1619ab;stroke-width:3;stroke-linejoin:round;stroke-miterlimit:4;stroke-opacity:1;stroke-dasharray:none;stroke-dashoffset:0"
       sodipodi:type="arc"
       transform="translate(1330,465)" />
    <path
       transform="translate(1410,465)"
       sodipodi:type="arc"
       style="fill:none;stroke:#1619ab;stroke-width:3;stroke-linejoin:round;stroke-miterlimit:4;stroke-opacity:1;stroke-dasharray:none;stroke-dashoffset:0"
       id="path5439"
       sodipodi:cx="-960"
       sodipodi:cy="162.36218"
       sodipodi:rx="5"
       sodipodi:ry="5"
       d="m -955,162.36218 c 0,2.76143 -2.23858,5 -5,5 -2.76142,0 -5,-2.23857 -5,-5 0,-2.76142 2.23858,-5 5,-5 2.76142,0 5,2.23858 5,5 z" />
    <path
       d="m -955,162.36218 c 0,2.76143 -2.23858,5 -5,5 -2.76142,0 -5,-2.23857 -5,-5 0,-2.76142 2.23858,-5 5,-5 2.76142,0 5,2.23858 5,5 z"
       sodipodi:ry="5"
       sodipodi:rx="5"
       sodipodi:cy="162.36218"
       sodipodi:cx="-960"
       id="path5441"
       style="fill:none;stroke:#1619ab;stroke-width:3;stroke-linejoin:round;stroke-miterlimit:4;stroke-opacity:1;stroke-dasharray:none;stroke-dashoffset:0"
       sodipodi:type="arc"
       transform="translate(1370,405)" />
    <path
       transform="translate(1370.3869,339.99999)"
       sodipodi:type="arc"
       style="fill:none;stroke:#1619ab;stroke-width:3;stroke-linejoin:round;stroke-miterlimit:4;stroke-opacity:1;stroke-dasharray:none;stroke-dashoffset:0"
       id="path5443"
       sodipodi:cx="-960"
       sodipodi:cy="162.36218"
       sodipodi:rx="25.386883"
       sodipodi:ry="25.386883"
       d="m -934.61312,162.36218 a 25.386883,25.386883 0 1 1 -50.77376,0 25.386883,25.386883 0 1 1 50.77376,0 z" />
    <text
       xml:space="preserve"
       style="font-size:14px;font-style:normal;font-variant:normal;font-weight:normal;font-stretch:normal;text-align:center;line-height:125%;letter-spacing:0px;word-spacing:0px;text-anchor:middle;fill:#000000;fill-opacity:1;stroke:none;font-family:Bitstream Vera Sans;-inkscape-font-specification:Bitstream Vera Sans"
       x="475"
       y="507.36218"
       id="text5445"
       sodipodi:linespacing="125%"><tspan
         sodipodi:role="line"
         x="475"
         y="507.36218"
         id="tspan5449">20A fuse</tspan></text>
    <path
       sodipodi:nodetypes="cc"
       inkscape:connector-curvature="0"
       id="path3577"
       d="m 860,557.36218 0,-10"
       style="fill:none;stroke:#1619ab;stroke-width:3;stroke-linecap:butt;stroke-linejoin:miter;stroke-miterlimit:4;stroke-opacity:1;stroke-dasharray:none" />
  </g>
</svg>
